<svg width="512" height="512" viewBox="0 0 512 512" fill="none" xmlns="http://www.w3.org/2000/svg">
  <rect width="512" height="512" rx="130" fill="url(#paint0_linear)"/>
  <rect x="8" y="8" width="496" height="496" rx="122" stroke="white" stroke-opacity="0.2" stroke-width="12"/>
  <path fill-rule="evenodd" clip-rule="evenodd" d="M256 96C185.3 96 128 153.3 128 224C128 316.5 256 432 256 432C256 432 384 316.5 384 224C384 153.3 326.7 96 256 96ZM256 288C220.7 288 192 259.3 192 224C192 188.7 220.7 160 256 160C291.3 160 320 188.7 320 224C320 259.3 291.3 288 256 288Z" fill="white"/>
  
  <!-- Royal Gold Center Dot -->
  <circle cx="256" cy="224" r="50" fill="url(#paint_gold)"/>
  <ellipse cx="244" cy="208" rx="18" ry="10" transform="rotate(-30 244 208)" fill="white" fill-opacity="0.45"/>
  <circle cx="256" cy="224" r="49" stroke="#FEF08A" stroke-width="2.5" stroke-opacity="0.75"/>

  <defs>
    <linearGradient id="paint0_linear" x1="0" y1="0" x2="512" y2="512" gradientUnits="userSpaceOnUse">
      <stop stop-color="#10B981"/>
      <stop offset="1" stop-color="#0F766E"/>
    </linearGradient>
    <linearGradient id="paint_gold" x1="210" y1="178" x2="302" y2="270" gradientUnits="userSpaceOnUse">
      <stop stop-color="#FEF08A"/>
      <stop offset="0.3" stop-color="#FBBF24"/>
      <stop offset="0.75" stop-color="#F59E0B"/>
      <stop offset="1" stop-color="#D97706"/>
    </linearGradient>
  </defs>
</svg>
